<?xml version="1.0" encoding="UTF-8"?>
<svg xmlns="http://www.w3.org/2000/svg" xmlns:xlink="http://www.w3.org/1999/xlink" width="32px" height="32px" viewBox="0 0 32 32" version="1.1">
<g id="surface1">
<path style=" stroke:none;fill-rule:nonzero;fill:rgb(32.549021%,59.607846%,100%);fill-opacity:1;" d="M 15.234375 31.898438 C 14.269531 31.859375 13.335938 31.726562 12.132812 31.449219 C 11.992188 31.417969 11.914062 31.386719 11.929688 31.367188 C 11.9375 31.347656 11.929688 31.34375 11.914062 31.355469 C 11.894531 31.367188 11.796875 31.355469 11.695312 31.328125 C 11.597656 31.300781 11.433594 31.257812 11.335938 31.226562 C 11.230469 31.199219 11.164062 31.164062 11.179688 31.148438 C 11.1875 31.132812 11.179688 31.125 11.164062 31.132812 C 11.117188 31.164062 10.933594 31.121094 10.960938 31.085938 C 10.96875 31.066406 10.960938 31.0625 10.945312 31.074219 C 10.902344 31.101562 10.742188 31.066406 10.761719 31.035156 C 10.769531 31.023438 10.742188 31.011719 10.710938 31.011719 C 10.53125 31 9.148438 30.414062 9.179688 30.363281 C 9.1875 30.347656 9.179688 30.34375 9.164062 30.355469 C 9.125 30.378906 8.601562 30.128906 8.074219 29.828125 C 7.640625 29.582031 6.9375 29.117188 6.953125 29.09375 C 6.960938 29.082031 6.949219 29.070312 6.929688 29.070312 C 6.835938 29.070312 5.644531 28.136719 5.675781 28.089844 C 5.683594 28.074219 5.675781 28.066406 5.648438 28.070312 C 5.628906 28.074219 5.613281 28.058594 5.617188 28.039062 C 5.621094 28.011719 5.613281 28.003906 5.59375 28.015625 C 5.574219 28.027344 5.476562 27.957031 5.375 27.859375 C 5.273438 27.757812 5.164062 27.660156 5.125 27.632812 C 5.089844 27.609375 5.070312 27.574219 5.082031 27.554688 C 5.09375 27.539062 5.085938 27.53125 5.070312 27.539062 C 5.007812 27.582031 3.917969 26.398438 3.957031 26.335938 C 3.96875 26.320312 3.964844 26.3125 3.945312 26.324219 C 3.910156 26.347656 3.757812 26.164062 3.335938 25.609375 C 3.179688 25.398438 3.113281 25.289062 3.132812 25.273438 C 3.160156 25.257812 3.152344 25.25 3.117188 25.25 C 3.058594 25.25 2.632812 24.613281 2.648438 24.539062 C 2.65625 24.515625 2.648438 24.503906 2.632812 24.511719 C 2.582031 24.539062 2.140625 23.777344 2.179688 23.734375 C 2.195312 23.71875 2.1875 23.71875 2.167969 23.726562 C 2.128906 23.75 1.929688 23.351562 1.957031 23.304688 C 1.96875 23.289062 1.964844 23.28125 1.945312 23.289062 C 1.929688 23.304688 1.90625 23.289062 1.898438 23.269531 C 1.886719 23.242188 1.894531 23.214844 1.914062 23.207031 C 1.9375 23.199219 1.933594 23.191406 1.902344 23.191406 C 1.785156 23.183594 1.148438 21.695312 0.859375 20.734375 C 0.53125 19.652344 0.335938 18.632812 0.210938 17.359375 C 0.164062 16.824219 0.164062 15.082031 0.210938 14.515625 C 0.300781 13.554688 0.492188 12.453125 0.703125 11.6875 C 0.921875 10.890625 1.414062 9.542969 1.472656 9.582031 C 1.488281 9.589844 1.492188 9.578125 1.484375 9.554688 C 1.453125 9.476562 2.277344 7.875 2.351562 7.875 C 2.367188 7.875 2.375 7.867188 2.367188 7.855469 C 2.335938 7.824219 2.445312 7.648438 2.957031 6.875 C 3.25 6.4375 3.839844 5.679688 3.878906 5.703125 C 3.894531 5.714844 3.902344 5.710938 3.898438 5.695312 C 3.882812 5.644531 4.03125 5.464844 4.070312 5.488281 C 4.085938 5.5 4.09375 5.496094 4.082031 5.476562 C 4.054688 5.433594 4.226562 5.246094 4.777344 4.679688 C 5.023438 4.433594 5.226562 4.25 5.257812 4.25 C 5.289062 4.25 5.308594 4.238281 5.296875 4.222656 C 5.273438 4.179688 5.84375 3.683594 5.882812 3.710938 C 5.898438 3.71875 5.90625 3.710938 5.898438 3.695312 C 5.882812 3.675781 5.992188 3.566406 6.148438 3.445312 C 6.636719 3.058594 6.777344 2.960938 6.816406 2.988281 C 6.835938 3 6.84375 2.996094 6.832031 2.976562 C 6.808594 2.9375 7.261719 2.617188 7.335938 2.617188 C 7.355469 2.617188 7.375 2.601562 7.375 2.589844 C 7.375 2.546875 7.964844 2.210938 8.003906 2.238281 C 8.023438 2.25 8.035156 2.246094 8.019531 2.226562 C 7.992188 2.179688 8.335938 1.992188 8.445312 1.992188 C 8.492188 1.996094 8.539062 1.984375 8.546875 1.964844 C 8.554688 1.949219 8.542969 1.945312 8.519531 1.957031 C 8.492188 1.964844 8.46875 1.964844 8.46875 1.957031 C 8.46875 1.917969 8.914062 1.714844 8.960938 1.730469 C 8.988281 1.742188 8.992188 1.738281 8.980469 1.710938 C 8.964844 1.6875 8.976562 1.683594 9.011719 1.695312 C 9.039062 1.710938 9.058594 1.707031 9.050781 1.691406 C 9.023438 1.652344 10.054688 1.195312 10.085938 1.230469 C 10.09375 1.242188 10.117188 1.226562 10.140625 1.207031 C 10.195312 1.152344 11.550781 0.707031 11.585938 0.730469 C 11.605469 0.742188 11.625 0.738281 11.632812 0.726562 C 11.640625 0.695312 12.253906 0.539062 12.734375 0.441406 C 13.789062 0.226562 14.589844 0.148438 15.859375 0.148438 C 17.050781 0.140625 17.648438 0.175781 18.527344 0.296875 C 18.710938 0.320312 18.867188 0.34375 18.882812 0.34375 C 18.898438 0.34375 18.898438 0.355469 18.890625 0.375 C 18.882812 0.394531 18.894531 0.398438 18.921875 0.386719 C 18.992188 0.359375 19.441406 0.4375 19.417969 0.472656 C 19.410156 0.488281 19.425781 0.492188 19.449219 0.480469 C 19.523438 0.453125 19.847656 0.53125 19.824219 0.570312 C 19.8125 0.589844 19.820312 0.59375 19.839844 0.582031 C 19.894531 0.546875 20.3125 0.652344 20.304688 0.695312 C 20.300781 0.714844 20.324219 0.734375 20.359375 0.742188 C 20.410156 0.75 20.414062 0.746094 20.375 0.722656 C 20.335938 0.695312 20.335938 0.6875 20.375 0.6875 C 20.460938 0.6875 21.222656 0.941406 21.207031 0.964844 C 21.195312 0.980469 21.210938 0.992188 21.242188 0.988281 C 21.316406 0.984375 21.59375 1.066406 21.59375 1.089844 C 21.59375 1.101562 21.621094 1.113281 21.65625 1.117188 C 21.695312 1.117188 21.746094 1.148438 21.773438 1.179688 C 21.804688 1.210938 21.816406 1.214844 21.796875 1.191406 C 21.773438 1.152344 21.777344 1.148438 21.828125 1.167969 C 21.863281 1.179688 21.929688 1.210938 21.976562 1.226562 C 22.023438 1.242188 22.054688 1.273438 22.039062 1.289062 C 22.03125 1.308594 22.039062 1.3125 22.058594 1.300781 C 22.101562 1.273438 22.5 1.429688 22.5 1.476562 C 22.5 1.488281 22.527344 1.5 22.566406 1.5 C 22.660156 1.5 23.039062 1.679688 23.015625 1.714844 C 23.007812 1.734375 23.023438 1.742188 23.058594 1.742188 C 23.144531 1.734375 23.378906 1.847656 23.351562 1.882812 C 23.34375 1.902344 23.351562 1.90625 23.367188 1.894531 C 23.417969 1.867188 23.539062 1.929688 23.511719 1.976562 C 23.5 1.992188 23.507812 2.003906 23.535156 1.992188 C 23.59375 1.972656 23.882812 2.117188 23.859375 2.15625 C 23.851562 2.171875 23.859375 2.179688 23.882812 2.167969 C 23.910156 2.160156 23.949219 2.171875 23.972656 2.195312 C 23.996094 2.214844 24.03125 2.238281 24.050781 2.242188 C 24.070312 2.242188 24.203125 2.320312 24.347656 2.410156 C 24.492188 2.5 24.65625 2.601562 24.710938 2.632812 C 24.804688 2.6875 24.863281 2.75 24.773438 2.699219 C 24.753906 2.6875 24.742188 2.691406 24.757812 2.703125 C 24.773438 2.71875 24.808594 2.734375 24.84375 2.742188 C 24.929688 2.753906 25.175781 2.933594 25.164062 2.976562 C 25.15625 2.992188 25.175781 3 25.199219 2.992188 C 25.226562 2.976562 25.273438 3.007812 25.3125 3.054688 C 25.351562 3.101562 25.367188 3.121094 25.355469 3.097656 C 25.34375 3.074219 25.378906 3.085938 25.429688 3.125 C 25.484375 3.164062 25.519531 3.210938 25.507812 3.226562 C 25.496094 3.246094 25.507812 3.253906 25.539062 3.242188 C 25.589844 3.222656 25.855469 3.445312 25.820312 3.484375 C 25.804688 3.5 25.820312 3.503906 25.847656 3.492188 C 25.882812 3.476562 26.003906 3.558594 26.210938 3.734375 C 26.382812 3.882812 26.546875 4.027344 26.570312 4.0625 C 26.59375 4.097656 26.625 4.117188 26.640625 4.101562 C 26.652344 4.085938 26.65625 4.101562 26.648438 4.132812 C 26.632812 4.167969 26.636719 4.183594 26.660156 4.171875 C 26.699219 4.144531 26.816406 4.25 26.789062 4.289062 C 26.78125 4.304688 26.785156 4.3125 26.804688 4.304688 C 26.84375 4.277344 27.039062 4.480469 27.007812 4.515625 C 26.992188 4.527344 27 4.53125 27.023438 4.523438 C 27.070312 4.492188 27.570312 4.992188 27.542969 5.039062 C 27.53125 5.054688 27.535156 5.0625 27.554688 5.054688 C 27.589844 5.03125 27.695312 5.132812 27.671875 5.164062 C 27.664062 5.179688 27.664062 5.179688 27.679688 5.171875 C 27.703125 5.152344 27.84375 5.277344 27.84375 5.320312 C 27.84375 5.335938 27.878906 5.378906 27.921875 5.414062 C 27.964844 5.445312 28.085938 5.578125 28.191406 5.710938 C 28.347656 5.898438 28.375 5.949219 28.339844 5.976562 C 28.304688 6 28.308594 6.003906 28.351562 5.988281 C 28.386719 5.976562 28.433594 6.011719 28.507812 6.101562 C 28.5625 6.175781 28.585938 6.222656 28.5625 6.207031 C 28.539062 6.195312 28.554688 6.210938 28.597656 6.253906 C 28.726562 6.371094 28.945312 6.683594 28.917969 6.726562 C 28.90625 6.746094 28.910156 6.75 28.929688 6.738281 C 28.976562 6.710938 29.40625 7.359375 29.40625 7.445312 C 29.40625 7.480469 29.414062 7.5 29.429688 7.492188 C 29.457031 7.460938 29.558594 7.625 29.539062 7.671875 C 29.535156 7.695312 29.542969 7.722656 29.566406 7.738281 C 29.589844 7.75 29.597656 7.746094 29.582031 7.726562 C 29.570312 7.703125 29.566406 7.6875 29.574219 7.6875 C 29.609375 7.6875 29.785156 8.035156 29.765625 8.0625 C 29.753906 8.082031 29.761719 8.089844 29.789062 8.085938 C 29.808594 8.082031 29.824219 8.101562 29.824219 8.132812 C 29.820312 8.164062 29.835938 8.179688 29.851562 8.164062 C 29.871094 8.152344 29.878906 8.164062 29.867188 8.199219 C 29.851562 8.226562 29.855469 8.246094 29.871094 8.238281 C 29.886719 8.226562 30.007812 8.429688 30.140625 8.691406 C 30.347656 9.09375 30.375 9.164062 30.335938 9.210938 C 30.304688 9.253906 30.304688 9.257812 30.347656 9.242188 C 30.386719 9.226562 30.421875 9.273438 30.5 9.441406 C 30.554688 9.558594 30.589844 9.667969 30.578125 9.683594 C 30.570312 9.699219 30.582031 9.726562 30.601562 9.742188 C 30.664062 9.773438 30.949219 10.519531 30.925781 10.578125 C 30.914062 10.605469 30.917969 10.621094 30.933594 10.613281 C 30.949219 10.601562 30.992188 10.679688 31.027344 10.789062 C 31.101562 11.007812 31.109375 11.042969 31.054688 11.011719 C 31.035156 11 31.03125 11.003906 31.042969 11.027344 C 31.054688 11.046875 31.078125 11.054688 31.089844 11.046875 C 31.121094 11.027344 31.289062 11.613281 31.269531 11.652344 C 31.257812 11.667969 31.261719 11.6875 31.28125 11.695312 C 31.320312 11.707031 31.507812 12.445312 31.511719 12.613281 C 31.511719 12.683594 31.523438 12.738281 31.535156 12.730469 C 31.546875 12.726562 31.5625 12.757812 31.570312 12.8125 C 31.574219 12.863281 31.570312 12.898438 31.554688 12.886719 C 31.542969 12.878906 31.53125 12.898438 31.53125 12.933594 C 31.53125 12.96875 31.550781 13.007812 31.574219 13.023438 C 31.636719 13.058594 31.808594 14.191406 31.769531 14.300781 C 31.757812 14.324219 31.765625 14.34375 31.777344 14.34375 C 31.792969 14.34375 31.816406 14.539062 31.824219 14.773438 C 31.835938 15.007812 31.851562 15.277344 31.859375 15.367188 C 31.871094 15.476562 31.867188 15.527344 31.84375 15.515625 C 31.828125 15.507812 31.8125 15.511719 31.8125 15.527344 C 31.8125 15.546875 31.828125 15.5625 31.84375 15.5625 C 31.863281 15.5625 31.875 15.695312 31.875 15.90625 C 31.875 16.351562 31.8125 17.355469 31.785156 17.367188 C 31.773438 17.371094 31.765625 17.414062 31.773438 17.460938 C 31.78125 17.511719 31.757812 17.753906 31.722656 18.003906 C 31.628906 18.648438 31.609375 18.734375 31.570312 18.726562 C 31.523438 18.714844 31.519531 18.773438 31.5625 18.789062 C 31.578125 18.792969 31.585938 18.847656 31.574219 18.914062 C 31.5625 18.976562 31.542969 19.023438 31.53125 19.015625 C 31.515625 19.007812 31.511719 19.027344 31.523438 19.0625 C 31.5625 19.21875 31.089844 21.054688 31.023438 21.007812 C 31.003906 21 31 21.007812 31.011719 21.023438 C 31.042969 21.078125 30.972656 21.320312 30.929688 21.292969 C 30.910156 21.28125 30.90625 21.285156 30.917969 21.304688 C 30.945312 21.351562 30.90625 21.503906 30.875 21.484375 C 30.859375 21.476562 30.855469 21.5 30.867188 21.539062 C 30.882812 21.585938 30.875 21.597656 30.84375 21.578125 C 30.816406 21.5625 30.808594 21.566406 30.824219 21.585938 C 30.871094 21.664062 30.242188 23.121094 30.160156 23.128906 C 30.128906 23.128906 30.125 23.132812 30.148438 23.148438 C 30.175781 23.15625 30.167969 23.195312 30.117188 23.289062 C 30.085938 23.363281 30.039062 23.429688 30.023438 23.441406 C 30.007812 23.449219 29.996094 23.472656 29.996094 23.488281 C 30.003906 23.554688 29.960938 23.625 29.929688 23.605469 C 29.910156 23.59375 29.90625 23.601562 29.917969 23.617188 C 29.941406 23.65625 29.855469 23.804688 29.824219 23.789062 C 29.816406 23.78125 29.796875 23.789062 29.789062 23.800781 C 29.773438 23.8125 29.785156 23.8125 29.804688 23.800781 C 29.824219 23.789062 29.84375 23.789062 29.84375 23.796875 C 29.84375 23.835938 29.554688 24.3125 29.535156 24.3125 C 29.523438 24.3125 29.507812 24.332031 29.507812 24.351562 C 29.507812 24.390625 29.371094 24.617188 29.164062 24.929688 C 29.101562 25.019531 29.039062 25.085938 29.023438 25.070312 C 29.003906 25.0625 29 25.070312 29.011719 25.085938 C 29.023438 25.109375 28.992188 25.1875 28.933594 25.265625 C 28.851562 25.382812 28.824219 25.398438 28.785156 25.367188 C 28.742188 25.335938 28.742188 25.335938 28.773438 25.382812 C 28.8125 25.429688 28.800781 25.457031 28.6875 25.609375 C 28.613281 25.710938 28.542969 25.773438 28.523438 25.761719 C 28.503906 25.75 28.5 25.757812 28.511719 25.777344 C 28.5625 25.855469 27.503906 27.085938 27.429688 27.039062 C 27.410156 27.027344 27.40625 27.039062 27.421875 27.0625 C 27.449219 27.105469 26.664062 27.882812 26.617188 27.855469 C 26.601562 27.847656 26.597656 27.851562 26.601562 27.867188 C 26.605469 27.882812 26.519531 27.976562 26.40625 28.074219 C 26.15625 28.300781 26.039062 28.382812 26.023438 28.351562 C 26.015625 28.335938 26.015625 28.34375 26.019531 28.367188 C 26.03125 28.414062 25.878906 28.539062 25.835938 28.507812 C 25.820312 28.5 25.8125 28.503906 25.820312 28.523438 C 25.847656 28.5625 25.164062 29.070312 25.121094 29.042969 C 25.101562 29.03125 25.09375 29.035156 25.101562 29.054688 C 25.117188 29.070312 24.945312 29.203125 24.726562 29.351562 C 24.203125 29.695312 24.113281 29.75 24.046875 29.75 C 24.015625 29.75 24 29.757812 24.007812 29.773438 C 24.039062 29.796875 23.621094 30.035156 23.585938 30.011719 C 23.574219 30.003906 23.5625 30.011719 23.5625 30.027344 C 23.5625 30.074219 22.878906 30.414062 22.835938 30.386719 C 22.820312 30.375 22.8125 30.378906 22.820312 30.398438 C 22.851562 30.445312 22.621094 30.53125 22.527344 30.511719 C 22.464844 30.5 22.464844 30.503906 22.511719 30.523438 C 22.5625 30.546875 22.542969 30.5625 22.40625 30.617188 C 22.316406 30.65625 22.226562 30.679688 22.207031 30.664062 C 22.1875 30.65625 22.183594 30.660156 22.195312 30.671875 C 22.238281 30.71875 21.179688 31.113281 21.121094 31.074219 C 21.101562 31.0625 21.09375 31.066406 21.101562 31.085938 C 21.117188 31.101562 21.074219 31.132812 21.007812 31.148438 C 20.945312 31.164062 20.671875 31.242188 20.40625 31.320312 C 18.828125 31.78125 17.066406 31.976562 15.234375 31.898438 Z M 12.324219 23.371094 C 13.113281 23.300781 14.007812 23.058594 14.519531 22.785156 C 14.582031 22.75 14.648438 22.726562 14.660156 22.734375 C 14.671875 22.742188 14.691406 22.726562 14.699219 22.699219 C 14.710938 22.671875 14.742188 22.65625 14.769531 22.667969 C 14.800781 22.679688 14.808594 22.675781 14.792969 22.648438 C 14.777344 22.625 14.789062 22.621094 14.832031 22.636719 C 14.863281 22.648438 14.878906 22.648438 14.867188 22.636719 C 14.835938 22.601562 15.054688 22.460938 15.101562 22.488281 C 15.121094 22.5 15.132812 22.5 15.117188 22.484375 C 15.105469 22.472656 15.195312 22.390625 15.320312 22.304688 C 15.445312 22.214844 15.613281 22.09375 15.691406 22.027344 C 15.769531 21.960938 15.847656 21.917969 15.859375 21.929688 C 15.875 21.945312 15.875 21.9375 15.867188 21.917969 C 15.84375 21.882812 16.023438 21.726562 16.070312 21.742188 C 16.085938 21.746094 16.089844 21.738281 16.082031 21.722656 C 16.054688 21.683594 16.144531 21.617188 16.183594 21.640625 C 16.207031 21.652344 16.210938 21.640625 16.195312 21.609375 C 16.1875 21.578125 16.191406 21.546875 16.207031 21.535156 C 16.226562 21.523438 16.328125 21.410156 16.4375 21.28125 C 16.546875 21.152344 16.648438 21.050781 16.65625 21.054688 C 16.667969 21.054688 16.679688 21.042969 16.679688 21.023438 C 16.679688 21 16.769531 20.851562 16.878906 20.6875 C 16.988281 20.523438 17.148438 20.269531 17.230469 20.117188 C 17.316406 19.964844 17.398438 19.851562 17.414062 19.867188 C 17.433594 19.875 17.4375 19.867188 17.425781 19.851562 C 17.40625 19.820312 17.585938 19.515625 18.523438 17.96875 C 18.683594 17.703125 18.832031 17.488281 18.847656 17.492188 C 18.867188 17.496094 18.871094 17.488281 18.863281 17.472656 C 18.835938 17.429688 19.0625 17.058594 19.101562 17.085938 C 19.121094 17.09375 19.125 17.085938 19.113281 17.070312 C 19.082031 17.019531 19.148438 16.898438 19.195312 16.925781 C 19.214844 16.9375 19.21875 16.933594 19.207031 16.914062 C 19.183594 16.875 19.28125 16.703125 20.09375 15.390625 C 20.253906 15.132812 20.445312 14.816406 20.523438 14.679688 C 20.628906 14.507812 20.679688 14.445312 20.714844 14.460938 C 20.753906 14.472656 20.757812 14.46875 20.726562 14.445312 C 20.695312 14.421875 20.707031 14.382812 20.785156 14.257812 C 20.835938 14.167969 20.898438 14.101562 20.914062 14.117188 C 20.933594 14.125 20.9375 14.117188 20.925781 14.101562 C 20.898438 14.058594 21.117188 13.6875 21.160156 13.6875 C 21.175781 13.6875 21.183594 13.675781 21.179688 13.660156 C 21.164062 13.609375 21.382812 13.28125 21.414062 13.304688 C 21.433594 13.3125 21.4375 13.304688 21.425781 13.289062 C 21.398438 13.238281 21.558594 12.960938 21.601562 12.992188 C 21.621094 13 21.625 12.992188 21.613281 12.972656 C 21.582031 12.925781 23.773438 9.335938 23.816406 9.363281 C 23.828125 9.367188 23.851562 9.359375 23.863281 9.339844 C 23.875 9.316406 23.871094 9.3125 23.851562 9.324219 C 23.796875 9.355469 23.804688 9.324219 23.867188 9.230469 C 23.902344 9.171875 23.921875 9.164062 23.945312 9.195312 C 23.964844 9.222656 23.96875 9.214844 23.957031 9.175781 C 23.945312 9.136719 23.964844 9.070312 24.015625 8.996094 C 24.058594 8.929688 24.09375 8.867188 24.09375 8.851562 C 24.09375 8.835938 23.535156 8.832031 22.851562 8.835938 C 21.792969 8.84375 21.605469 8.851562 21.585938 8.894531 C 21.570312 8.917969 21.546875 8.929688 21.53125 8.921875 C 21.515625 8.914062 21.507812 8.929688 21.507812 8.960938 C 21.511719 9.035156 21.117188 9.6875 21.082031 9.664062 C 21.066406 9.652344 21.0625 9.660156 21.070312 9.679688 C 21.097656 9.71875 20.417969 10.832031 20.375 10.820312 C 20.355469 10.816406 20.347656 10.824219 20.355469 10.839844 C 20.382812 10.882812 20.339844 10.972656 20.304688 10.945312 C 20.289062 10.9375 20.28125 10.941406 20.289062 10.960938 C 20.304688 10.976562 20.246094 11.09375 20.164062 11.222656 C 20.085938 11.351562 19.820312 11.785156 19.578125 12.1875 C 18.859375 13.375 18.601562 13.78125 18.585938 13.765625 C 18.578125 13.757812 18.570312 13.769531 18.570312 13.789062 C 18.570312 13.855469 18.402344 14.125 18.371094 14.105469 C 18.355469 14.097656 18.351562 14.109375 18.359375 14.132812 C 18.378906 14.183594 17.574219 15.488281 17.53125 15.476562 C 17.511719 15.472656 17.503906 15.480469 17.515625 15.5 C 17.523438 15.515625 17.347656 15.835938 17.121094 16.210938 C 16.894531 16.585938 16.679688 16.933594 16.648438 16.992188 C 16.609375 17.058594 16.570312 17.085938 16.539062 17.070312 C 16.492188 17.058594 16.492188 17.0625 16.527344 17.085938 C 16.5625 17.113281 16.496094 17.238281 16.1875 17.742188 C 15.695312 18.539062 15.65625 18.597656 15.617188 18.570312 C 15.601562 18.5625 15.59375 18.570312 15.605469 18.585938 C 15.617188 18.605469 15.585938 18.679688 15.535156 18.757812 C 15.394531 18.964844 14.964844 19.410156 14.929688 19.382812 C 14.914062 19.375 14.90625 19.382812 14.917969 19.398438 C 14.984375 19.507812 13.726562 20.34375 13.554688 20.300781 C 13.523438 20.292969 13.507812 20.296875 13.515625 20.3125 C 13.550781 20.367188 12.945312 20.539062 12.53125 20.589844 C 12.003906 20.660156 11.246094 20.65625 11.351562 20.585938 C 11.375 20.570312 11.359375 20.570312 11.304688 20.582031 C 11.257812 20.589844 11.078125 20.566406 10.875 20.515625 C 10.453125 20.414062 10.429688 20.410156 10.460938 20.367188 C 10.472656 20.347656 10.460938 20.339844 10.425781 20.351562 C 10.363281 20.378906 10.070312 20.238281 9.8125 20.0625 C 9.226562 19.664062 8.78125 19.027344 8.550781 18.269531 C 8.332031 17.554688 8.269531 16.964844 8.289062 15.890625 C 8.308594 14.925781 8.394531 14.398438 8.632812 13.695312 C 8.667969 13.585938 8.710938 13.5 8.726562 13.5 C 8.742188 13.5 8.742188 13.488281 8.734375 13.46875 C 8.683594 13.386719 9.25 12.472656 9.335938 12.492188 C 9.355469 12.496094 9.367188 12.480469 9.355469 12.457031 C 9.335938 12.40625 9.585938 12.179688 9.632812 12.207031 C 9.648438 12.21875 9.65625 12.214844 9.648438 12.195312 C 9.609375 12.136719 9.914062 11.917969 9.976562 11.957031 C 9.996094 11.96875 10 11.964844 9.988281 11.941406 C 9.941406 11.867188 10.769531 11.535156 10.910156 11.570312 C 10.945312 11.582031 10.960938 11.574219 10.953125 11.5625 C 10.90625 11.488281 11.941406 11.460938 12.335938 11.53125 C 12.460938 11.550781 12.570312 11.582031 12.582031 11.597656 C 12.589844 11.613281 12.609375 11.617188 12.621094 11.609375 C 12.738281 11.539062 13.765625 12.058594 13.765625 12.1875 C 13.765625 12.210938 13.792969 12.230469 13.824219 12.238281 C 13.898438 12.246094 14.066406 12.4375 14.039062 12.476562 C 14.03125 12.496094 14.039062 12.5 14.054688 12.488281 C 14.074219 12.476562 14.128906 12.523438 14.179688 12.601562 C 14.308594 12.789062 14.382812 12.9375 14.34375 12.9375 C 14.328125 12.9375 14.3125 12.953125 14.3125 12.972656 C 14.3125 12.992188 14.332031 13 14.355469 12.992188 C 14.410156 12.96875 14.570312 13.382812 14.574219 13.546875 C 14.578125 13.601562 14.585938 13.644531 14.601562 13.636719 C 14.609375 13.632812 14.636719 13.726562 14.660156 13.84375 C 14.679688 13.964844 14.71875 14.085938 14.742188 14.117188 C 14.765625 14.148438 14.777344 14.152344 14.765625 14.132812 C 14.753906 14.109375 14.765625 14.09375 14.796875 14.09375 C 14.824219 14.09375 14.882812 14.074219 14.929688 14.050781 C 14.976562 14.023438 15.042969 14 15.078125 13.992188 C 15.113281 13.992188 15.148438 13.976562 15.15625 13.964844 C 15.164062 13.957031 15.304688 13.886719 15.46875 13.8125 C 15.632812 13.734375 16.007812 13.550781 16.304688 13.398438 C 16.601562 13.25 16.851562 13.125 16.863281 13.125 C 16.871094 13.125 16.867188 13.140625 16.855469 13.164062 C 16.84375 13.183594 16.847656 13.1875 16.871094 13.175781 C 16.890625 13.164062 16.898438 13.136719 16.886719 13.117188 C 16.871094 13.09375 16.882812 13.089844 16.925781 13.105469 C 16.957031 13.117188 16.972656 13.117188 16.960938 13.105469 C 16.945312 13.09375 17.007812 13.042969 17.09375 12.992188 C 17.261719 12.898438 17.296875 12.886719 17.261719 12.945312 C 17.25 12.964844 17.253906 12.96875 17.277344 12.957031 C 17.296875 12.945312 17.304688 12.917969 17.292969 12.898438 C 17.277344 12.875 17.289062 12.871094 17.324219 12.882812 C 17.351562 12.898438 17.371094 12.894531 17.359375 12.878906 C 17.351562 12.863281 17.359375 12.84375 17.382812 12.835938 C 17.425781 12.820312 17.402344 12.761719 17.164062 12.257812 C 17.074219 12.0625 16.996094 11.886719 16.992188 11.867188 C 16.988281 11.84375 16.976562 11.820312 16.960938 11.8125 C 16.953125 11.804688 16.878906 11.683594 16.796875 11.546875 C 16.714844 11.410156 16.585938 11.210938 16.511719 11.101562 C 16.433594 10.992188 16.382812 10.886719 16.394531 10.867188 C 16.40625 10.851562 16.398438 10.84375 16.382812 10.851562 C 16.34375 10.878906 15.960938 10.425781 15.992188 10.390625 C 16.007812 10.375 16 10.375 15.980469 10.382812 C 15.960938 10.394531 15.871094 10.324219 15.777344 10.230469 C 15.683594 10.136719 15.535156 10.003906 15.445312 9.929688 C 15.355469 9.863281 15.289062 9.789062 15.304688 9.773438 C 15.3125 9.757812 15.304688 9.75 15.289062 9.757812 C 15.273438 9.773438 15.160156 9.714844 15.042969 9.632812 C 14.925781 9.554688 14.648438 9.402344 14.429688 9.296875 C 14.210938 9.191406 14.042969 9.089844 14.054688 9.078125 C 14.070312 9.0625 14.058594 9.0625 14.039062 9.074219 C 14.015625 9.085938 13.867188 9.054688 13.710938 9.003906 C 13.308594 8.871094 13.074219 8.816406 12.640625 8.746094 C 12.140625 8.664062 11.242188 8.648438 10.71875 8.710938 C 10.503906 8.734375 10.277344 8.757812 10.210938 8.757812 C 10.148438 8.761719 10.105469 8.773438 10.113281 8.789062 C 10.132812 8.816406 9.820312 8.851562 9.777344 8.824219 C 9.757812 8.8125 9.75 8.816406 9.757812 8.835938 C 9.785156 8.871094 9.230469 9.039062 9.179688 9.011719 C 9.15625 9 9.148438 9.003906 9.164062 9.015625 C 9.179688 9.03125 9.0625 9.09375 8.910156 9.160156 C 8.53125 9.316406 7.820312 9.714844 7.75 9.808594 C 7.710938 9.867188 7.539062 9.964844 7.515625 9.945312 C 7.5 9.929688 7.5 9.941406 7.511719 9.960938 C 7.53125 9.996094 7.496094 10.015625 7.429688 10.003906 C 7.414062 10.003906 7.410156 10.019531 7.414062 10.039062 C 7.417969 10.058594 7.402344 10.074219 7.382812 10.070312 C 7.355469 10.066406 7.347656 10.070312 7.351562 10.085938 C 7.363281 10.101562 7.25 10.214844 7.109375 10.34375 C 6.964844 10.472656 6.847656 10.589844 6.847656 10.601562 C 6.84375 10.617188 6.769531 10.71875 6.679688 10.820312 C 6.328125 11.226562 5.8125 12.117188 5.636719 12.613281 C 5.597656 12.730469 5.570312 12.773438 5.535156 12.757812 C 5.5 12.75 5.496094 12.753906 5.523438 12.773438 C 5.550781 12.789062 5.535156 12.882812 5.453125 13.132812 C 5.394531 13.320312 5.3125 13.617188 5.273438 13.800781 C 5.230469 13.976562 5.191406 14.117188 5.179688 14.105469 C 5.167969 14.097656 5.167969 14.117188 5.175781 14.148438 C 5.183594 14.179688 5.167969 14.335938 5.140625 14.5 C 5.113281 14.664062 5.085938 14.847656 5.085938 14.90625 C 5.085938 14.964844 5.058594 15.035156 5.035156 15.054688 C 5.007812 15.082031 5.003906 15.089844 5.023438 15.078125 C 5.054688 15.0625 5.054688 15.1875 5.039062 15.648438 C 5.023438 16.164062 5.039062 16.46875 5.109375 17.359375 C 5.113281 17.429688 5.125 17.507812 5.132812 17.53125 C 5.144531 17.554688 5.1875 17.761719 5.230469 17.992188 C 5.3125 18.40625 5.539062 19.160156 5.675781 19.460938 C 5.714844 19.554688 5.753906 19.652344 5.757812 19.679688 C 5.761719 19.710938 5.773438 19.742188 5.785156 19.75 C 5.796875 19.757812 5.855469 19.867188 5.917969 19.992188 C 5.976562 20.117188 6.09375 20.316406 6.171875 20.4375 C 6.253906 20.554688 6.304688 20.671875 6.292969 20.695312 C 6.28125 20.710938 6.285156 20.71875 6.304688 20.710938 C 6.351562 20.679688 6.628906 21.050781 6.605469 21.117188 C 6.59375 21.152344 6.597656 21.160156 6.617188 21.132812 C 6.632812 21.105469 6.710938 21.167969 6.867188 21.34375 C 6.992188 21.476562 7.09375 21.605469 7.09375 21.625 C 7.09375 21.644531 7.101562 21.652344 7.117188 21.644531 C 7.132812 21.636719 7.246094 21.722656 7.375 21.835938 C 7.613281 22.039062 8.027344 22.351562 8.210938 22.453125 C 8.265625 22.484375 8.300781 22.523438 8.289062 22.539062 C 8.28125 22.558594 8.289062 22.5625 8.304688 22.550781 C 8.351562 22.523438 8.539062 22.617188 8.515625 22.652344 C 8.507812 22.667969 8.523438 22.691406 8.550781 22.699219 C 8.574219 22.710938 8.585938 22.707031 8.578125 22.6875 C 8.570312 22.667969 8.582031 22.664062 8.605469 22.675781 C 8.632812 22.683594 8.65625 22.703125 8.65625 22.714844 C 8.65625 22.726562 8.679688 22.742188 8.703125 22.742188 C 8.773438 22.742188 9 22.851562 9 22.882812 C 9 22.898438 9.015625 22.898438 9.03125 22.890625 C 9.050781 22.882812 9.0625 22.882812 9.0625 22.898438 C 9.0625 22.910156 9.101562 22.925781 9.144531 22.929688 C 9.191406 22.929688 9.234375 22.945312 9.246094 22.960938 C 9.257812 22.972656 9.28125 22.984375 9.296875 22.988281 C 9.382812 22.992188 9.59375 23.074219 9.59375 23.101562 C 9.59375 23.117188 9.605469 23.121094 9.621094 23.113281 C 9.632812 23.101562 9.742188 23.121094 9.863281 23.152344 C 10.621094 23.363281 11.566406 23.445312 12.324219 23.371094 Z M 23.328125 23.101562 C 23.449219 23.066406 23.621094 23.007812 23.714844 22.976562 C 23.808594 22.9375 23.898438 22.917969 23.914062 22.929688 C 23.933594 22.9375 23.9375 22.933594 23.929688 22.914062 C 23.917969 22.898438 23.964844 22.851562 24.035156 22.816406 C 24.664062 22.460938 25.171875 21.636719 25.359375 20.65625 C 25.394531 20.492188 25.441406 20.339844 25.464844 20.320312 C 25.496094 20.292969 25.5 20.28125 25.476562 20.28125 C 25.445312 20.28125 25.441406 20.195312 25.457031 19.914062 C 25.480469 19.4375 25.40625 18.683594 25.292969 18.28125 C 25.25 18.117188 25.210938 17.945312 25.207031 17.898438 C 25.207031 17.855469 25.195312 17.824219 25.183594 17.832031 C 25.171875 17.835938 25.140625 17.773438 25.109375 17.695312 C 25.035156 17.492188 24.917969 17.269531 24.792969 17.070312 C 24.734375 16.980469 24.691406 16.898438 24.695312 16.886719 C 24.699219 16.878906 24.679688 16.855469 24.648438 16.839844 C 24.617188 16.820312 24.601562 16.792969 24.613281 16.777344 C 24.621094 16.761719 24.613281 16.753906 24.589844 16.757812 C 24.570312 16.761719 24.535156 16.734375 24.519531 16.695312 C 24.5 16.660156 24.460938 16.613281 24.421875 16.597656 C 24.386719 16.578125 24.289062 16.507812 24.203125 16.4375 C 24.117188 16.367188 23.960938 16.265625 23.851562 16.210938 C 23.746094 16.15625 23.664062 16.101562 23.671875 16.09375 C 23.679688 16.085938 23.648438 16.078125 23.617188 16.074219 C 23.578125 16.070312 23.457031 16.042969 23.34375 16.011719 C 23.027344 15.917969 22.257812 15.929688 21.921875 16.027344 C 21.601562 16.121094 21.300781 16.273438 21.078125 16.453125 C 20.984375 16.53125 20.886719 16.585938 20.867188 16.574219 C 20.847656 16.558594 20.84375 16.566406 20.859375 16.589844 C 20.871094 16.617188 20.839844 16.675781 20.773438 16.742188 C 20.710938 16.808594 20.605469 16.941406 20.539062 17.039062 C 20.472656 17.136719 20.402344 17.207031 20.390625 17.195312 C 20.375 17.179688 20.375 17.191406 20.386719 17.210938 C 20.398438 17.234375 20.390625 17.285156 20.363281 17.324219 C 20.335938 17.367188 20.277344 17.488281 20.234375 17.597656 C 19.972656 18.234375 19.863281 18.835938 19.867188 19.65625 C 19.867188 20.195312 19.902344 20.523438 20.023438 20.964844 C 20.066406 21.132812 20.101562 21.289062 20.101562 21.320312 C 20.105469 21.351562 20.117188 21.375 20.125 21.375 C 20.164062 21.375 20.289062 21.714844 20.261719 21.753906 C 20.25 21.777344 20.253906 21.78125 20.273438 21.769531 C 20.296875 21.757812 20.332031 21.789062 20.363281 21.851562 C 20.390625 21.90625 20.449219 21.996094 20.492188 22.054688 C 20.535156 22.109375 20.554688 22.167969 20.542969 22.191406 C 20.53125 22.210938 20.535156 22.21875 20.554688 22.207031 C 20.574219 22.195312 20.632812 22.242188 20.695312 22.320312 C 20.75 22.398438 20.851562 22.496094 20.914062 22.542969 C 20.976562 22.589844 21.023438 22.644531 21.011719 22.660156 C 21.003906 22.675781 21.007812 22.683594 21.023438 22.679688 C 21.054688 22.667969 21.25 22.789062 21.25 22.820312 C 21.25 22.835938 21.261719 22.839844 21.277344 22.828125 C 21.296875 22.820312 21.320312 22.835938 21.339844 22.867188 C 21.359375 22.898438 21.375 22.914062 21.375 22.898438 C 21.375 22.882812 21.429688 22.898438 21.492188 22.929688 C 21.976562 23.175781 22.78125 23.246094 23.328125 23.101562 Z M 31.804688 15.023438 C 31.796875 14.984375 31.789062 15.015625 31.789062 15.09375 C 31.789062 15.171875 31.796875 15.203125 31.804688 15.164062 C 31.808594 15.125 31.808594 15.0625 31.804688 15.023438 Z M 31.355469 12.019531 C 31.347656 11.972656 31.332031 11.941406 31.320312 11.945312 C 31.316406 11.957031 31.320312 12 31.332031 12.042969 C 31.339844 12.089844 31.355469 12.121094 31.367188 12.117188 C 31.371094 12.105469 31.367188 12.0625 31.355469 12.019531 Z M 31.355469 12.019531 "/>
<path style=" stroke:none;fill-rule:nonzero;fill:rgb(32.549021%,59.607846%,100%);fill-opacity:1;" d="M 22.476562 21.71875 C 21.992188 21.617188 21.742188 21.128906 21.652344 20.085938 C 21.609375 19.585938 21.648438 18.886719 21.738281 18.5 C 21.902344 17.777344 22.203125 17.429688 22.660156 17.429688 C 22.769531 17.429688 22.863281 17.445312 22.867188 17.460938 C 22.875 17.480469 22.898438 17.492188 22.917969 17.480469 C 22.976562 17.460938 23.191406 17.628906 23.292969 17.773438 C 23.371094 17.890625 23.378906 17.914062 23.339844 17.960938 C 23.304688 18.007812 23.304688 18.011719 23.347656 17.976562 C 23.390625 17.945312 23.402344 17.957031 23.445312 18.070312 C 23.539062 18.304688 23.648438 18.894531 23.601562 18.863281 C 23.585938 18.855469 23.574219 18.894531 23.570312 18.945312 C 23.570312 19.039062 23.570312 19.039062 23.589844 18.96875 C 23.613281 18.890625 23.613281 18.890625 23.632812 18.976562 C 23.640625 19.023438 23.648438 19.273438 23.652344 19.539062 C 23.664062 20.527344 23.484375 21.265625 23.160156 21.550781 C 23.070312 21.628906 23.011719 21.648438 23.050781 21.585938 C 23.0625 21.566406 23.058594 21.5625 23.035156 21.574219 C 23.015625 21.585938 23.007812 21.609375 23.015625 21.625 C 23.054688 21.695312 22.679688 21.757812 22.476562 21.71875 Z M 22.476562 21.71875 "/>
</g>
</svg>
